HIERARCHY
ROOT Hips
{
	OFFSET -3.958830 18.904000 13.208200
	CHANNELS 6 Xposition Yposition Zposition Zrotation Yrotation Xrotation 
	JOINT LHipJoint
	{
		OFFSET 0.000000 0.000000 0.000000
		CHANNELS 3 Zrotation Yrotation Xrotation
		JOINT LeftUpLeg
		{
			OFFSET 1.800000 -1.400000 0.085000
			CHANNELS 3 Zrotation Yrotation Xrotation
			JOINT LeftLeg
			{
				OFFSET 2.215000 -6.000000 0.000000
				CHANNELS 3 Zrotation Yrotation Xrotation
				JOINT LeftFoot
				{
					OFFSET 2.500000 -6.900000 0.000000
					CHANNELS 3 Zrotation Yrotation Xrotation
					JOINT LeftToeBase
					{
						OFFSET 0.200000 -0.500000 1.950000
						CHANNELS 3 Zrotation Yrotation Xrotation
						End Site
						{
							OFFSET 0.000000 0.000000 0.000000
						}
					}
				}
			}
		}
	}
	JOINT RHipJoint
	{
		OFFSET 0.000000 0.000000 0.000000
		CHANNELS 3 Zrotation Yrotation Xrotation
		JOINT RightUpLeg
		{
			OFFSET -1.800000 -1.400000 0.085000
			CHANNELS 3 Zrotation Yrotation Xrotation
			JOINT RightLeg
			{
				OFFSET -2.215000 -6.000000 0.000000
				CHANNELS 3 Zrotation Yrotation Xrotation
				JOINT RightFoot
				{
					OFFSET -2.500000 -6.900000 0.000000
					CHANNELS 3 Zrotation Yrotation Xrotation
					JOINT RightToeBase
					{
						OFFSET -0.200000 -0.500000 1.950000
						CHANNELS 3 Zrotation Yrotation Xrotation
						End Site
						{
							OFFSET 0.000000 0.000000 0.000000
						}
					}
				}
			}
		}
	}
	JOINT LowerBack
	{
		OFFSET 0.000000 0.000000 0.000000
		CHANNELS 3 Zrotation Yrotation Xrotation
		JOINT Spine
		{
			OFFSET -0.087000 1.940000 -0.288900
			CHANNELS 3 Zrotation Yrotation Xrotation
			JOINT Spine1
			{
				OFFSET 0.000000 1.950000 0.060000
				CHANNELS 3 Zrotation Yrotation Xrotation
				JOINT Neck
				{
					OFFSET 0.000000 0.000000 0.000000
					CHANNELS 3 Zrotation Yrotation Xrotation
					JOINT Neck1
					{
						OFFSET 0.000000 1.600000 0.340000
						CHANNELS 3 Zrotation Yrotation Xrotation
						JOINT Head
						{
							OFFSET 0.000000 1.667000 -0.240000
							CHANNELS 3 Zrotation Yrotation Xrotation
							End Site
							{
								OFFSET 0.000000 0.000000 0.000000
							}
						}
					}
				}
				JOINT LeftShoulder
				{
					OFFSET 0.000000 0.000000 0.000000
					CHANNELS 3 Zrotation Yrotation Xrotation
					JOINT LeftArm
					{
						OFFSET 2.700000 1.550000 -0.730000
						CHANNELS 3 Zrotation Yrotation Xrotation
						JOINT LeftForeArm
						{
							OFFSET 5.450000 0.000000 0.000000
							CHANNELS 3 Zrotation Yrotation Xrotation
							JOINT LeftHand
							{
								OFFSET 3.450000 0.000000 0.000000
								CHANNELS 3 Zrotation Yrotation Xrotation
								JOINT LeftHandIndex1
								{
									OFFSET 0.750000 0.000000 0.000000
									CHANNELS 3 Zrotation Yrotation Xrotation
									End Site
									{
										OFFSET 0.000000 0.000000 0.000000
									}
								}
							}
						}
					}
				}
				JOINT RightShoulder
				{
					OFFSET 0.000000 0.000000 0.000000
					CHANNELS 3 Zrotation Yrotation Xrotation
					JOINT RightArm
					{
						OFFSET -2.700000 1.550000 -0.730000
						CHANNELS 3 Zrotation Yrotation Xrotation
						JOINT RightForeArm
						{
							OFFSET -5.450000 0.000000 0.000000
							CHANNELS 3 Zrotation Yrotation Xrotation
							JOINT RightHand
							{
								OFFSET -3.450000 0.000000 0.000000
								CHANNELS 3 Zrotation Yrotation Xrotation
								JOINT RightHandIndex1
								{
									OFFSET -0.750000 0.000000 0.000000
									CHANNELS 3 Zrotation Yrotation Xrotation
									End Site
									{
										OFFSET 0.000000 0.000000 0.000000
									}
								}
							}
						}
					}
				}
			}
		}
	}
}
MOTION
Frames: 13
Frame Time: 0.016667
-10.256210 17.603540 -3.514160 -4.354247 -20.836997 5.326935 -15.343614 12.660971 3.635371 0.702046 -4.429276 -24.454973 -0.282926 1.013177 -7.425640 -2.171991 4.110675 3.514042 0.616360 0.267980 0.115070 18.416264 -9.621736 2.472470 1.516657 -0.134707 -5.102392 6.913747 -4.832245 7.768120 -0.405732 -4.484770 2.537530 0.928610 1.592450 0.831280 -3.593847 -3.867082 -6.888876 12.057396 -1.474844 3.259540 -4.997431 0.187219 10.626055 -4.821149 -5.868071 -10.282564 -13.220491 27.772423 11.816438 7.247320 12.932920 -8.438320 -4.114611 -16.671500 4.013059 -17.680344 -21.706235 0.554635 7.962381 -65.666156 -8.167245 -4.494438 3.015995 0.720220 1.002850 -0.337660 0.550610 14.146669 15.472142 4.856746 2.183935 3.519559 -2.321876 -9.531487 40.403509 -1.856648 1.051787 -1.715571 -0.943750 0.941170 0.392870 -0.052450 
-10.251460 17.606010 -3.523870 -3.769874 -17.850764 4.098492 -15.416173 12.846549 3.616566 -0.728459 -4.587921 -23.909369 0.021112 1.005719 -6.997607 -2.336054 4.173539 3.456570 0.706010 0.307010 0.249630 18.373971 -9.367178 2.492005 1.223641 -0.372628 -3.441990 7.616820 -4.860219 6.388457 -0.453826 -4.642649 2.396009 1.014620 1.545050 0.864400 -3.405301 -4.679450 -6.898775 11.426840 -1.709904 3.999487 -4.632347 0.163187 12.503623 -6.372311 -4.967740 -11.128240 -11.637954 25.608269 11.823037 5.625170 11.543820 -9.128840 -0.148906 -17.603747 4.562671 -20.280023 -25.089944 0.520834 12.651145 -61.812824 -11.207162 -4.481808 3.047976 0.734520 1.011790 -0.350930 0.508780 12.919764 14.323268 4.688414 3.877453 -0.081288 -2.849825 -12.524624 41.312442 -2.906245 0.934935 -1.846363 -0.968780 0.923810 0.402900 -0.123910 
-10.254180 17.606320 -3.533140 -3.242771 -17.464344 3.786630 -15.447860 12.922777 3.653355 -1.240746 -4.722298 -23.695044 -0.142008 1.015277 -7.121800 -2.414995 4.289928 3.417510 0.655420 0.170980 0.253390 18.345310 -9.280201 2.476898 0.910400 -0.312040 -3.255038 7.445458 -4.817094 6.070834 -0.429025 -4.625402 2.372276 0.966480 1.581220 0.867960 -3.310549 -4.992353 -6.918275 10.420778 -1.794679 4.106713 -4.151274 0.180320 12.852987 -6.809924 -5.011521 -11.563995 -11.953305 26.122246 11.707350 6.047040 11.694940 -8.768530 0.522578 -17.857966 4.884633 -20.797534 -24.987351 0.153824 14.367055 -62.999456 -12.844215 -4.490089 3.052859 0.796470 1.003770 -0.395470 0.477340 13.127899 14.382777 4.985696 3.809268 -1.286880 -3.011981 -13.348502 40.608644 -3.064751 0.919111 -1.838288 -1.040950 0.940530 0.480070 -0.168570 
-10.261030 17.610100 -3.540610 -3.316901 -19.194835 4.370479 -15.419324 12.879664 3.674722 -0.532167 -4.723175 -24.056198 -0.567605 1.036111 -7.079700 -2.384970 4.289570 3.396967 0.648720 0.140180 0.262840 18.357939 -9.362579 2.458365 1.105975 -0.110001 -4.298098 6.881191 -4.731014 6.812114 -0.419809 -4.467143 2.399656 0.927420 1.561820 0.870380 -3.379316 -4.766886 -6.900155 10.245148 -1.922457 3.587935 -3.554979 -0.026099 12.007860 -6.798403 -5.927308 -11.469808 -14.172556 29.084529 11.133691 7.707600 13.456840 -8.784750 -0.897695 -17.406852 5.081078 -20.800325 -22.721739 0.081731 13.685072 -64.100719 -12.513224 -4.450227 3.064015 0.845640 0.948450 -0.361380 0.471030 14.785370 15.149187 5.218912 1.276877 -0.087117 -2.538450 -11.998169 38.933424 -2.492808 1.010836 -1.788190 -1.036520 0.933980 0.489330 -0.169590 
-10.253480 17.608060 -3.515160 -3.356582 -20.899415 4.734103 -15.400000 12.847551 3.668322 -0.297747 -4.633704 -23.665656 -0.380606 1.025614 -7.414375 -2.328098 4.297292 3.402151 0.604170 0.094360 0.221390 18.366049 -9.434612 2.454047 0.807836 -0.037940 -4.648351 6.733984 -4.701420 6.831674 -0.406773 -4.411836 2.427739 0.881520 1.580290 0.856640 -3.432876 -4.563330 -6.893270 10.443594 -1.780765 3.158499 -3.739878 0.108845 11.438067 -6.268892 -6.448490 -11.604475 -15.534590 31.283372 10.680036 9.108060 14.865060 -8.124150 -2.422259 -17.394238 5.190915 -19.479904 -20.504143 -0.228339 11.452270 -65.836020 -11.265524 -4.443065 3.093160 0.857890 0.927830 -0.358870 0.473680 15.466397 15.866981 5.683415 0.479731 -0.165945 -2.450727 -11.352335 38.271357 -2.257242 1.065587 -1.746986 -1.041880 0.937540 0.503150 -0.152330 
-10.246430 17.613090 -3.502550 -3.308374 -21.620549 4.776552 -15.396279 12.845262 3.667560 -0.343264 -4.601610 -23.294138 -0.157283 1.002132 -7.774040 -2.380665 4.392015 3.363587 0.556600 0.017070 0.216540 18.367818 -9.431710 2.455811 0.313958 -0.025951 -4.519631 7.182833 -4.819074 6.432330 -0.411036 -4.431791 2.410614 0.856820 1.603290 0.878570 -3.451999 -4.568012 -6.898478 10.625691 -1.596919 3.167009 -3.939908 0.351860 11.306506 -6.298154 -6.610745 -11.741800 -16.130503 32.391932 10.517267 9.185490 15.794460 -8.564580 -2.584693 -17.399332 5.213329 -18.976821 -20.044669 -0.217078 10.519005 -66.147002 -10.773006 -4.493083 3.045659 0.917830 0.941140 -0.349460 0.443660 15.700893 15.885820 5.839223 0.537585 -0.636977 -2.569444 -11.976271 37.944535 -2.333667 1.039635 -1.687477 -1.088210 0.965010 0.559280 -0.182040 
-10.250770 17.618080 -3.495320 -3.056004 -21.672132 4.541320 -15.416671 12.881092 3.661877 -0.513488 -4.607388 -23.054520 -0.193880 1.008678 -7.807795 -2.493700 4.479193 3.320077 0.568260 0.018710 0.290910 18.354176 -9.359560 2.467084 -0.136727 -0.077071 -3.957559 7.622099 -4.849388 5.606837 -0.423439 -4.488696 2.364985 0.903250 1.597440 0.878250 -3.406413 -4.772014 -6.896131 10.366308 -1.119111 3.200614 -3.974568 0.872687 11.711655 -6.913627 -6.157859 -11.700859 -15.177001 31.819700 10.655249 7.998430 15.824270 -9.658460 -1.405429 -17.281529 4.998867 -19.492687 -21.814060 0.230285 11.077409 -64.940430 -11.049083 -4.549676 2.957672 0.951910 0.969490 -0.346850 0.396710 15.551552 15.014113 5.587248 1.586406 -0.996548 -2.555097 -14.232270 36.693581 -2.856314 0.986520 -1.660263 -1.141470 1.010160 0.583320 -0.237080 
-10.241230 17.622660 -3.492160 -2.763333 -20.811998 3.709967 -15.451466 13.025572 3.624125 -0.918818 -4.544291 -22.755290 -0.396023 1.113052 -6.989719 -2.682023 4.601104 3.294478 0.597400 0.036500 0.405850 18.329820 -9.222137 2.480869 -0.705984 -0.230960 -2.639817 8.131955 -4.937704 4.808499 -0.444298 -4.655083 2.286746 0.994080 1.625710 0.870540 -3.308055 -5.295261 -6.878802 10.343543 -0.561033 3.820255 -4.332533 1.651181 13.322323 -8.247805 -4.837124 -12.156540 -12.321748 29.208147 11.351467 5.468740 14.714070 -10.711210 2.155297 -17.874102 5.356340 -20.974012 -25.032611 0.147906 15.285052 -63.090052 -13.955395 -4.628654 2.805111 0.968910 1.048190 -0.373590 0.354860 14.098815 13.393532 4.692498 4.491172 -0.837812 -2.622444 -17.130782 34.556416 -3.449676 0.882000 -1.654942 -1.234640 1.098030 0.596570 -0.309870 
-10.247310 17.626880 -3.465650 -2.648440 -22.539895 4.784559 -15.435505 12.956607 3.640363 -0.562255 -4.672063 -23.545820 -0.853622 1.134454 -6.667918 -2.861402 4.709234 3.325376 0.623960 0.047110 0.484080 18.334354 -9.279941 2.469130 -1.294729 -0.000766 -3.720313 8.567191 -4.909280 4.724686 -0.411777 -4.594613 2.319678 1.080100 1.739470 0.799830 -3.360835 -5.081323 -6.826080 10.663149 0.373833 2.787886 -4.362197 2.550277 11.930563 -8.651305 -5.102705 -11.337857 -12.855739 29.689663 10.329761 5.369400 14.282660 -11.101880 1.661074 -16.351072 4.474901 -21.568090 -26.414303 2.157863 12.553026 -62.946498 -11.985890 -4.712126 2.614871 1.028010 1.096300 -0.416510 0.375360 15.511149 12.351955 4.347677 2.420246 -2.830128 -2.065910 -15.871088 37.953188 -3.401291 0.784314 -1.645668 -1.386130 1.303470 0.600200 -0.341930 
-10.253610 17.629120 -3.448790 -2.524966 -23.814038 5.882344 -15.406628 12.828630 3.616033 0.090602 -4.878050 -25.251581 -1.848188 1.323468 -4.598792 -2.936788 4.629396 3.367938 0.614920 0.035820 0.525130 18.343748 -9.380302 2.511560 -2.228011 0.154932 -4.644473 9.919436 -4.995967 3.888146 -0.401306 -4.558645 2.350458 1.088870 1.769360 0.743030 -3.442182 -4.630328 -6.780349 10.217488 0.155285 1.529524 -3.967583 2.049725 10.171163 -7.993571 -6.061149 -10.230241 -15.220655 32.792575 8.972306 6.134040 16.129800 -11.335510 -0.782811 -14.596950 3.658448 -20.866175 -24.601151 3.221671 8.473151 -64.636140 -9.154064 -4.748653 2.516837 1.085690 1.088200 -0.411040 0.369760 17.007109 12.457867 4.345414 0.176182 -1.362550 -1.449068 -13.399627 37.841494 -2.771524 0.819967 -1.549894 -1.460360 1.398100 0.595350 -0.364470 
-10.252150 17.633480 -3.445860 -2.739010 -24.351976 6.368901 -15.396853 12.770840 3.626985 -0.147494 -4.886415 -24.984249 -0.843945 1.147608 -5.678178 -2.955633 4.636332 3.371750 0.615330 0.040030 0.514660 18.361938 -9.434571 2.485549 -1.499006 0.267291 -5.311269 8.781882 -4.799639 4.433250 -0.375468 -4.439261 2.384802 1.102960 1.792610 0.735830 -3.497230 -4.427242 -6.764448 10.608065 0.015619 1.111245 -4.032794 1.887379 9.907648 -7.929148 -6.458230 -10.156901 -16.270869 33.890200 8.322325 6.664160 16.504800 -11.261210 -1.058975 -14.278463 3.682898 -20.858076 -23.598225 3.324247 7.072417 -65.317470 -8.360995 -4.755954 2.513875 1.096580 1.089050 -0.415020 0.376100 17.271129 12.693506 4.400746 -0.377254 -1.168000 -1.387800 -12.904887 38.148677 -2.692535 0.816455 -1.531949 -1.479610 1.429990 0.607380 -0.358750 
-10.255310 17.626440 -3.438160 -2.567116 -24.140973 6.716718 -15.418568 12.740748 3.635000 -0.566017 -5.016179 -25.113304 -0.456771 1.069245 -5.999463 -2.962484 4.618695 3.402477 0.647250 0.103540 0.499010 18.349099 -9.382630 2.497280 -1.968624 0.297621 -5.376174 9.565399 -4.782489 3.721069 -0.362471 -4.515643 2.378331 1.161340 1.838500 0.718770 -3.458229 -4.463680 -6.770501 10.232999 0.016543 0.531831 -3.794960 1.836431 10.045536 -8.018965 -6.388304 -10.213965 -16.292387 34.308655 7.664850 6.911680 16.410670 -10.283360 -0.781404 -14.279833 3.787582 -21.185467 -23.395116 3.325845 8.121941 -65.930968 -9.144758 -4.775853 2.532516 1.030940 1.133300 -0.460830 0.407850 17.284787 12.731748 4.425092 -0.669072 -1.832395 -1.151709 -12.634367 38.969354 -2.818486 0.781790 -1.606685 -1.482070 1.453790 0.585490 -0.336660 
-10.243060 17.622390 -3.425480 -2.414604 -22.945000 6.615824 -15.429665 12.765121 3.668618 -1.037948 -5.082692 -25.010946 -0.716327 1.053251 -6.299784 -2.934119 4.637103 3.412259 0.653480 0.130380 0.469710 18.347501 -9.384541 2.438282 -1.315231 0.349339 -5.569864 8.107242 -4.604152 4.726097 -0.326765 -4.470005 2.400631 1.183170 1.876710 0.736650 -3.420745 -4.532151 -6.739895 10.196534 -0.235797 0.360722 -3.942216 1.515001 9.916702 -8.064366 -6.099630 -9.957056 -15.655375 33.977067 7.796517 6.868640 16.075960 -9.415060 -0.575252 -13.968050 3.563515 -21.506807 -24.336998 3.896435 6.871292 -66.403276 -8.387593 -4.817584 2.597248 0.962030 1.178990 -0.493290 0.429050 17.127916 12.082441 4.076653 -0.550956 -1.416228 -0.804910 -12.060914 38.389187 -2.646209 0.773880 -1.662400 -1.459460 1.439910 0.577760 -0.309000 
